<?xml version="1.0" standalone="yes"?>

<svg version="1.1" viewBox="0.0 0.0 64.0 64.0" fill="none" stroke="none" stroke-linecap="square" stroke-miterlimit="10" xmlns="http://www.w3.org/2000/svg" xmlns:xlink="http://www.w3.org/1999/xlink"><clipPath id="p.0"><path d="m0 0l64.0 0l0 64.0l-64.0 0l0 -64.0z" clip-rule="nonzero"></path></clipPath><g clip-path="url(#p.0)"><path fill="#000000" fill-opacity="0.0" d="m0 0l64.0 0l0 64.0l-64.0 0z" fill-rule="nonzero"></path><path fill="#0000ff" d="m1.3797034 -3.7558806E-8l0 63.984005l12.7546835 0l0 -25.357918c0 -3.6371078 0.70859337 -6.4886017 2.125781 -8.554478c1.4171867 -2.065878 3.7870388 -3.7001495 7.1095543 -4.9028225c3.3382645 -1.212368 6.8969765 -1.8185539 10.676142 -1.8185539c5.054634 0 8.95977 0.89715576 11.715412 2.6914597c2.7713852 1.7846088 4.1570816 4.640951 4.1570816 8.569029l0 29.373283l12.754684 0l0 -29.373283c0 -4.539112 -0.88967896 -8.001638 -2.6690369 -10.387583c-1.7636108 -2.3859425 -4.7003365 -4.2529907 -8.810177 -5.601145c-4.109844 -1.3578529 -8.9519005 -2.0367813 -14.526169 -2.0367813c-9.069996 0 -16.581087 2.1240711 -22.533272 6.3722134l0 -22.957426z" fill-rule="evenodd"></path><path stroke="#000000" stroke-width="1.0" stroke-linejoin="round" stroke-linecap="butt" d="m1.3797034 -3.7558806E-8l0 63.984005l12.7546835 0l0 -25.357918c0 -3.6371078 0.70859337 -6.4886017 2.125781 -8.554478c1.4171867 -2.065878 3.7870388 -3.7001495 7.1095543 -4.9028225c3.3382645 -1.212368 6.8969765 -1.8185539 10.676142 -1.8185539c5.054634 0 8.95977 0.89715576 11.715412 2.6914597c2.7713852 1.7846088 4.1570816 4.640951 4.1570816 8.569029l0 29.373283l12.754684 0l0 -29.373283c0 -4.539112 -0.88967896 -8.001638 -2.6690369 -10.387583c-1.7636108 -2.3859425 -4.7003365 -4.2529907 -8.810177 -5.601145c-4.109844 -1.3578529 -8.9519005 -2.0367813 -14.526169 -2.0367813c-9.069996 0 -16.581087 2.1240711 -22.533272 6.3722134l0 -22.957426z" fill-rule="evenodd"></path></g></svg>

